#format: frame checksums
#version: 2
#hash: MD5
#tb 0: 1/24
#media_type 0: video
#codec_id 0: rawvideo
#dimensions 0: 1024x436
#sar 0: 1/1
#stream#, dts,        pts, duration,     size, hash
0,          0,          0,        1,   669696, f48f296a85eda5ba069dc851a3228bef
0,          1,          1,        1,   669696, a50c5f69bfa3387d49b5bdf738e6529c
0,          2,          2,        1,   669696, 05061299003760f6a4795b408f72aa31
0,          3,          3,        1,   669696, 2572119f0b0cdd83f8a7e06252cecd3b
0,          4,          4,        1,   669696, 29fe6a6bdb4a69018e318886a297f07e
0,          5,          5,        1,   669696, e8233c7fbaecfbff965c7dfdd3982b1b
0,          6,          6,        1,   669696, d9259df9880ff5d4a4b38282e67f407b
0,          7,          7,        1,   669696, 3e8d795195038993503ea9ab6984c915
0,          8,          8,        1,   669696, bc4e2d253b715a34f85aae1b080e3460
0,          9,          9,        1,   669696, 09aba8b3a96f53f9268e7420a10bfab6
0,         10,         10,        1,   669696, 179447977dd580da8b35fb5310a809ca
0,         11,         11,        1,   669696, 7a0eea9d54577990345f5705ab9882be
0,         12,         12,        1,   669696, 5bb96eb76f461825740e5938456df759
0,         13,         13,        1,   669696, bd4ac4a760ead774b9422a27dc071964
0,         14,         14,        1,   669696, 1cc05f760a9b751fc89e77f2bcc97259
0,         15,         15,        1,   669696, 825d0dee6f0174ba7102892c7de30b4d
0,         16,         16,        1,   669696, d26a2ef5267f6bb03c4e1d8514eee0df
0,         17,         17,        1,   669696, c916ffdeadca76596a8f7fd47914b5ef
0,         18,         18,        1,   669696, 6e085acfa7fee0658ea0ae6188274c17
0,         19,         19,        1,   669696, 1e95fa5b3561283f05bf0bd44cb91721
0,         20,         20,        1,   669696, 37e3d135aba9dfb8b87e441753115374
0,         21,         21,        1,   669696, 9c398310e8564491de624393c16265ce
0,         22,         22,        1,   669696, c87209e4d2617bc2ab40a75f455f09da
0,         23,         23,        1,   669696, 2679c2f8d1d1af21982e245945c1ee60
0,         24,         24,        1,   669696, 6151ab4781f31c5beb66b356ad547122
0,         25,         25,        1,   669696, f7ef6293bfb3a6a329061cb6a5ed5a38
0,         26,         26,        1,   669696, 2f6e666d14dfc407ca0c0f347b13eb08
0,         27,         27,        1,   669696, 3454fa1730d79b1aa8dbbc865dc150f4
0,         28,         28,        1,   669696, e93dc683e2453419a0419ab9af0f8f95
0,         29,         29,        1,   669696, 031eb3154f7f83cf86d42bee66be9cf7
0,         30,         30,        1,   669696, 1205c36723e88811206c68892d3aaed6
0,         31,         31,        1,   669696, 7dd7a8a19dcd73b31ddc6a6d0c597a42
0,         32,         32,        1,   669696, 7c91115368ea2531262a1197468bc3f4
0,         33,         33,        1,   669696, 3cf6d9ba385e0fff76da33299ed5380c
0,         34,         34,        1,   669696, 859fc8c3ef049e3c1175a85fb0a90a3d
0,         35,         35,        1,   669696, 1d09ce6c7027103d99a4d5799f6e72ab
0,         36,         36,        1,   669696, 3dcb8357408ac88abd734128d8f5dd6f
0,         37,         37,        1,   669696, 4dafce137a0a5178f6efaec878e64d36
0,         38,         38,        1,   669696, 44c478f29a1399ed03275a7357f57d48
0,         39,         39,        1,   669696, 6e9edaac7414c0e14591ac3d4d0b1ac4
0,         40,         40,        1,   669696, 522e4aaeea0825da27f631a9e690d654
0,         41,         41,        1,   669696, 85f2502a718440834c40051d30f8a65e
0,         42,         42,        1,   669696, ae8816f7bd4645ef1a17ee6d09b4c8d2
0,         43,         43,        1,   669696, 914b006fa92f1eb3e590245749f6810d
0,         44,         44,        1,   669696, 9406901542e94c429dff46108782ed69
0,         45,         45,        1,   669696, 324c13641c39eef5c476023e358c0391
0,         46,         46,        1,   669696, 4058e886e17c22e4eb9da1dd0d6ad891
0,         47,         47,        1,   669696, 9edf9cd15eea985b42fd1f5035b1d693
